<svg width="40" height="50" fill="none" xmlns="http://www.w3.org/2000/svg"><g clip-path="url(#a)"><path d="m20.001 49.73 3.167-2.39c2.073-1.633 4.36-3.81 6.862-6.53 2.503-2.72 4.81-5.888 6.921-9.503 2.073-3.615 3.09-7.423 3.05-11.427 0-2.76-.528-5.344-1.584-7.754a19.525 19.525 0 0 0-4.252-6.325c-1.818-1.807-3.94-3.236-6.363-4.285C25.377.506 22.777 0 20.002 0c-2.777 0-5.377.505-7.801 1.516C9.776 2.566 7.654 3.994 5.837 5.8a19.526 19.526 0 0 0-4.252 6.325C.529 14.536 0 17.121 0 19.88c-.039 4.004.958 7.774 2.991 11.31 1.994 3.576 4.223 6.715 6.687 9.416 2.463 2.701 4.75 4.868 6.862 6.5A455.957 455.957 0 0 1 20 49.73Z" fill="#2E2D2C"/><g clip-path="url(#b)" fill="#fff"><path d="M28.393 12.437v2.18l-1.907-1.1-.744 1.285 1.907 1.08-1.907 1.078.744 1.287 1.907-1.103v2.182h1.488v-2.182l1.906 1.103.745-1.287-1.93-1.079 1.93-1.079-.745-1.285-1.906 1.1v-2.18h-1.488ZM20.933 12.437l-5.105 14.925h2.673l5.105-14.925h-2.673ZM15.115 12.437 10.01 27.362h2.673l5.105-14.925h-2.673Z"/></g></g><defs><clipPath id="a"><path fill="#fff" d="M0 0h40v49.73H0z"/></clipPath><clipPath id="b"><path fill="#fff" transform="translate(10.01 12.437)" d="M0 0h22.522v14.925H0z"/></clipPath></defs></svg>