<svg width="32" height="43" fill="none" xmlns="http://www.w3.org/2000/svg"><g clip-path="url(#a)"><path d="m16 42.286 2.535-2.033c1.657-1.388 3.487-3.239 5.49-5.552 2.001-2.313 3.847-5.007 5.536-8.08 1.658-3.074 2.471-6.313 2.44-9.717 0-2.346-.422-4.544-1.267-6.593-.813-2.049-1.947-3.842-3.402-5.378a16.356 16.356 0 0 0-5.09-3.644C20.301.429 18.221 0 16 0S11.7.43 9.76 1.289A16.355 16.355 0 0 0 4.67 4.933C3.215 6.469 2.08 8.263 1.268 10.31.423 12.361 0 14.558 0 16.904c-.031 3.404.766 6.61 2.393 9.617 1.595 3.041 3.378 5.71 5.349 8.007 1.97 2.296 3.8 4.139 5.49 5.527A364.453 364.453 0 0 1 16 42.285Z" fill="#2152FF"/><g clip-path="url(#b)"><path d="M17.69 10.576h-5.678v12.69h2.674v-3.52h3.003c.595 0 1.157-.12 1.69-.363a4.544 4.544 0 0 0 2.314-2.446c.219-.55.328-1.14.328-1.768 0-.639-.109-1.234-.328-1.784a4.597 4.597 0 0 0-.938-1.463 4.546 4.546 0 0 0-1.377-.983 4.025 4.025 0 0 0-1.689-.363Zm0 6.345h-3.004V13.4h3.003c.459 0 .852.171 1.181.513.328.341.493.76.493 1.255 0 .485-.165.898-.493 1.24a1.581 1.581 0 0 1-1.18.512Z" fill="#fff"/></g></g><defs><clipPath id="a"><path fill="#fff" d="M0 0h32v42.286H0z"/></clipPath><clipPath id="b"><path fill="#fff" transform="translate(12.012 10.576)" d="M0 0h10.01v12.691H0z"/></clipPath></defs></svg>