<?xml version="1.0" standalone="no"?>
<!DOCTYPE svg PUBLIC "-//W3C//DTD SVG 20010904//EN"
 "http://www.w3.org/TR/2001/REC-SVG-20010904/DTD/svg10.dtd">
<svg version="1.0" xmlns="http://www.w3.org/2000/svg"
 width="1000.000000pt" height="1000.000000pt" viewBox="0 0 1000.000000 1000.000000"
 preserveAspectRatio="xMidYMid meet">
<metadata>
Created by potrace 1.11, written by Peter Selinger 2001-2013
</metadata>
<g transform="translate(0.000000,1000.000000) scale(0.100000,-0.100000)"
fill="#000000" stroke="none">
<path d="M0 5000 l0 -5000 5000 0 5000 0 0 5000 0 5000 -5000 0 -5000 0 0
-5000z m3936 2206 c-3 -13 -341 -1015 -750 -2227 l-744 -2204 -395 -3 -396 -2
94 277 c255 763 1407 4167 1411 4175 3 4 181 8 396 8 l390 0 -6 -24z m1722 7
c-4 -14 -1355 -4016 -1479 -4380 l-21 -63 -395 0 c-236 0 -393 4 -391 9 2 5
341 1009 753 2230 l750 2221 394 0 c370 0 393 -1 389 -17z m1864 -307 l3 -324
265 155 c146 86 272 157 280 160 14 4 62 -74 206 -331 l24 -44 -280 -158
c-154 -88 -280 -161 -280 -164 0 -3 120 -72 266 -155 146 -82 272 -154 280
-160 11 -8 -7 -47 -93 -198 -77 -135 -112 -187 -123 -184 -8 3 -134 75 -280
160 l-265 156 -3 -324 -2 -325 -220 0 -220 0 -2 325 -3 325 -273 -160 c-151
-88 -277 -160 -282 -160 -4 0 -56 84 -114 187 -95 167 -105 189 -91 200 9 6
133 78 276 159 142 82 259 151 259 154 0 3 -118 73 -261 155 -144 82 -268 155
-277 161 -12 9 3 40 93 197 58 103 110 187 115 187 5 0 132 -72 282 -160 l273
-160 3 325 2 325 220 0 220 0 2 -324z"/>
</g>
</svg>
